<?xml version="1.0" encoding="UTF-8"?>
<svg id="Layer_1" data-name="Layer 1" xmlns="http://www.w3.org/2000/svg" viewBox="0 0 800 800">
  <defs>
    <style>
      .cls-1 {
        fill: #faf8d5;
        stroke: #1d1d1b;
        stroke-miterlimit: 10;
      }

      .cls-2 {
        fill: #68180b;
        font-family: Baskerville, Baskerville;
        font-size: 175px;
      }
    </style>
  </defs>
  <path class="cls-1" d="M153.17,126.89c-20.98-16.28-25.89-48.11-15.06-72.36S172.7,13.54,198.16,6.01c25.47-7.53,52.64-6.87,79.04-4.01,54.19,5.87,112.17,24.15,141.68,69.98,9.62,14.94,15.96,32.47,29.21,44.31,25.86,23.12,65.43,15.68,100.11,15.54,65.54-.26,130.34,33.05,168.26,86.51,26.58,37.47,39.91,83.1,44.6,128.8,7.15,69.78-4.85,139.96-16.8,209.08-7.2,41.64-14.54,83.75-31.52,122.45-29.91,68.22-92.04,123.17-165.13,137.54-73.09,14.37-154.8-15.67-195.68-77.93-20.87-31.79-33.74-72.9-68.12-89.17-41.04-19.42-89.48,7.53-134.47,1.44-54.28-7.35-89.61-59.13-117.88-106.04-20.68-34.32-41.97-75.82-25.73-112.45,13.3-30.01,47.83-45.59,63.48-74.44,13.8-25.45,10.48-56.84,1.93-84.5-8.54-27.66-21.89-53.88-27.55-82.26-12.04-60.42,15.35-126.82,66.48-161.17,20.96-14.09,46.02-23.1,71.23-21.59,25.21,1.51,50.3,14.61,62.86,36.52"/>
  <text class="cls-2" transform="translate(188.88 471.21)"><tspan x="0" y="0">PLET</tspan></text>
</svg>