<?xml version="1.0" encoding="UTF-8"?>
<svg id="Layer_1" data-name="Layer 1" xmlns="http://www.w3.org/2000/svg" viewBox="0 0 595.28 841.89">
  <defs>
    <style>
      .cls-1 {
        fill: none;
      }

      .cls-2 {
        fill: #fde6da;
      }

      .cls-3 {
        fill: #135528;
      }

      .cls-4 {
        fill: #85c4e6;
      }

      .cls-5 {
        fill: #f9cdd4;
      }

      .cls-6 {
        fill: #a6d9e1;
      }

      .cls-7 {
        fill: #e2e6e0;
      }

      .cls-8 {
        fill: #92d1dc;
      }

      .cls-9 {
        letter-spacing: -.09em;
      }

      .cls-10 {
        letter-spacing: -.02em;
      }

      .cls-11 {
        letter-spacing: -.04em;
      }

      .cls-12 {
        fill: #fde5d6;
      }

      .cls-13 {
        font-size: 15px;
      }

      .cls-13, .cls-14 {
        fill: #631027;
        font-family: TimesNewRomanPSMT, 'Times New Roman';
      }

      .cls-15 {
        fill: #d5e6ea;
      }

      .cls-14 {
        font-size: 50px;
      }

      .cls-16 {
        fill: #b3dcd4;
      }
    </style>
  </defs>
  <text class="cls-14" transform="translate(146.55 74.33)"><tspan x="0" y="0">SPI</tspan><tspan class="cls-9" x="72.27" y="0">L</tspan><tspan class="cls-10" x="98.22" y="0">T</tspan><tspan x="127.86" y="0" xml:space="preserve"> PÅ</tspan><tspan class="cls-10" x="204.27" y="0"> </tspan><tspan x="215.87" y="0">TØ</tspan><tspan class="cls-11" x="282.52" y="0">Y</tspan></text>
  <text class="cls-13" transform="translate(221.02 112)"><tspan x="0" y="0">RO,</tspan><tspan class="cls-10" x="24.59" y="0"> </tspan><tspan x="28.07" y="0">VI HJELPER DEG</tspan></text>
  <rect class="cls-2" x="405.88" y="475.33" width="166.99" height="187.85"/>
  <ellipse class="cls-7" cx="489.37" cy="603.66" rx="51.98" ry="54.14"/>
  <ellipse class="cls-7" cx="489.37" cy="500.79" rx="11.07" ry="11.53"/>
  <rect class="cls-7" x="405.88" y="475.33" width="58.45" height="31.89"/>
  <rect class="cls-7" x="533.01" y="482.58" width="31.51" height="17.39"/>
  <ellipse class="cls-4" cx="489.37" cy="603.66" rx="40.17" ry="40.64"/>
  <g>
    <polygon class="cls-16" points="465.67 429.15 472.57 441.96 472.99 443.3 472.99 444.71 472.45 446.06 471.66 446.8 470.39 447.66 451.37 460.1 450.28 460.59 449.13 460.59 447.55 460.59 445.98 460.16 443.74 459.3 442.71 458.5 442.59 458.87 442.26 459.08 442.04 459.02 442.04 459.41 441.9 459.9 441.47 460.27 441 460.38 440.35 460.34 440.13 460.19 439.78 459.9 439.92 460.29 439.78 460.73 439.39 460.85 438.99 460.66 438.52 460.03 437.52 458.65 436.59 457.16 436.46 456.96 435.1 454.8 435.1 454.41 435.1 453.96 435.41 453.57 435.8 453.5 436.14 453.63 435.96 453.05 435.94 452.58 436.02 452.25 436.36 451.78 436.89 451.57 437.42 451.53 437.65 451.8 438.03 452.19 438.26 452.56 438.24 452.06 438.21 451.8 438.38 451.53 438.64 451.55 438.82 451.59 438.74 451.1 438.72 450.44 438.7 449.76 438.91 448.52 439.21 446.88 439.7 445 440.35 443.71 441.81 442.39 443.32 441.2 453.61 434.22 462.13 428.53 463.29 428.2 463.92 428.3 464.51 428.5 465.24 428.9 465.67 429.15"/>
    <polygon class="cls-16" points="437.61 456.97 436.58 457.98 436.25 458.53 435.55 459.72 434.77 461.14 433.37 465.08 432.79 468.65 432.46 471.7 432.64 474.53 432.79 475.14 440.09 475.33 440.09 472.74 439.91 470.43 439.27 468.71 438.79 466.99 438.12 464.89 437.75 463.75 437.57 461.29 437.66 460.06 437.96 459.04 438.67 458.66 437.61 456.97"/>
  </g>
  <polygon class="cls-15" points="249.41 647.63 246.84 633.28 244.91 615.36 242.77 594.84 241.48 576.91 240.62 558.58 240.62 537.27 243.19 509.58 246.41 486.47 252.4 465.15 254.12 457.38 273.18 457.38 287.75 459.38 312.38 459.18 329.94 457.38 334.44 460.17 334.44 463.16 341.51 485.67 344.29 498.62 346.43 521.13 348.15 551.41 348.15 579.1 346.86 603.4 345.15 637.27 343.65 651.21 332.51 654 312.16 647.43 309.81 635.68 307.24 622.13 305.52 604.4 303.6 586.07 299.95 564.16 297.6 543.44 296.74 534.28 294.39 523.52 293.1 520.13 290.53 532.29 289.24 546.43 287.32 563.16 285.82 578.7 284.32 606.99 281.96 621.73 280.68 640.85 277.46 651.21 262.9 651.81 249.41 647.63"/>
  <polygon class="cls-6" points="249.19 649.42 250.91 658.98 264.83 660.78 277.04 659.58 277.04 652.81 277.46 651.21 249.19 649.42"/>
  <polyline class="cls-15" points="255.19 649.42 249.41 647.63 249.19 649.42"/>
  <polygon class="cls-6" points="314.09 652.01 315.59 660.78 327.58 663.17 340.86 661.97 343.65 651.21 314.09 652.01"/>
  <polyline class="cls-15" points="312.16 647.43 324.36 651.73 314.09 652.01"/>
  <polyline class="cls-6" points="326.9 468.97 319.03 477.51 319.03 485.57 321.91 488.98 329 492.16 333.2 492.16 336.09 492.16 338.71 492.16"/>
  <polyline class="cls-6" points="262.05 468.97 268.09 477.51 266.77 487.27 263.89 490.93 258.11 496.06 251.55 496.06 249.19 492.89"/>
  <path class="cls-6" d="M252.4,465.15l37.74,1.04-37.74-1.04Z"/>
  <polyline class="cls-6" points="254.12 457.38 252.4 465.15 283.37 466.19 308.45 465.15 334.44 463.16 334.44 460.17 329.94 457.38"/>
  <polygon class="cls-8" points="273.18 457.38 273.18 465.67 278.29 465.67 278.29 458.08 273.18 457.38"/>
  <polyline class="cls-8" points="308.45 465.15 305.43 465.28 305.43 457.38 308.45 457.38 308.45 461.79"/>
  <ellipse class="cls-8" cx="292.35" cy="471.02" rx="2.2" ry="2.05"/>
  <path class="cls-1" d="M290.15,477.54c.47,7.88.93,15.77,1.4,23.65,5.43-.74,8.91-5.77,9.83-10.81s-.49-10.16-2-15.06"/>
  <polygon class="cls-12" points="65.12 645.95 44.5 645.95 37.35 628.55 35.24 606.02 35.24 586.25 35.24 570.84 35.24 553.84 39.87 535.65 43.24 518.26 52.49 499.68 65.12 488.21 77.32 481.89 84.89 488.61 96.67 492.96 108.87 496.01 118.13 496.01 129.91 490.89 136.64 481.89 150.95 485.03 166.51 491.25 174.09 504.42 179.56 516.68 184.18 527.35 187.55 536.44 191.34 546.72 194.28 559.77 198.91 579.93 201.43 595.74 201.43 613.53 203.96 623.93 203.96 634.48 201.43 642.78 193.02 648.71 184.18 648.71 178.29 650.69 170.3 643.57 170.06 638.02 168.2 594.55 167.58 590.13 166.93 585.46 165.67 573.6 163.99 559.77 161.89 549.09 159.78 543.95 166.09 645.55 143.37 646.34 125.7 646.34 101.72 645.16 87.41 644.36 75.21 643.18 70.59 640.41 65.96 602.07 65.96 591.79 65.54 578.35 64.98 570.37 64.69 566.29 64.48 561.46 64.14 553.83 63.85 547.51 63.85 543.95 63.43 582.7 63.43 595.35 66.8 640.41 65.12 645.95"/>
  <polyline class="cls-5" points="44.08 650.69 44.08 654.64 49.13 657.81 57.96 657.81 63.43 657.81 65.96 652.67 65.12 645.95 55.02 645.95 48.71 644.36 44.5 645.95"/>
  <polyline class="cls-5" points="73.53 647.13 73.53 653.85 77.74 657.81 88.68 657.81 100.04 657.81 110.98 659.39 126.12 659.39 142.11 659.39 153.89 659.39 164.41 657.81 166.51 653.26 166.09 645.55 125.7 646.34 101.72 645.16 87.41 644.36 75.21 643.18"/>
  <polyline class="cls-5" points="176.61 649.9 176.61 658.6 187.55 658.6 199.75 655.04 199.75 649.9 199.75 643.97 185.45 644.36 179.56 646.34 174.09 646.34"/>
  <polygon class="cls-5" points="83.47 479.12 77.32 481.89 84.89 488.61 90.96 490.85 100.8 493.99 108.87 496.01 114.36 496.01 118.13 496.01 125.77 492.68 129.91 490.89 132.39 487.57 134.47 484.79 136.64 481.89 129.33 479.12 123.41 484.4 117.17 487.57 106.98 487.57 100.94 487.57 96.26 487.57 91.58 484.98 89.09 481.89 83.47 479.12"/>
  <path class="cls-3" d="M249.19,586.42c8.77-.99,17.54-1.97,26.31-2.96-4.75.82-9.51,1.64-14.26,2.46-.6-1.37-4.75-2.63-10.41-3.16-1.68,1.58,1.85,3.37,8.2,4.16,2.96-.95,2.46-2.37-1.13-3.21-.29.94,3.31,1.85,7.51,1.9-2.12-.14-4.24-.28-6.37-.42.41.57,3.64.91,6.02.68s3.59-.89,2.97-1.45-2.77-1-5.22-1.19c-.22.31-.42.64.13.92s2.17.5,3.39.34c1.37-.17,1.21-.64.34-.93-2.48-.83-8.86-.73-11.35.1s-1.09,2.06,2.44,2.67c2.25.39,5.66.54,7.87.14,2.05-.37,2.25-1.04,2.3-1.63.08-1.06.16-2.11.23-3.17-3.25,1.62-2.84,3.58,1.06,5.12-5.88-.11-11.75-.22-17.63-.33,3.96.17,7.91.34,11.87.51l-1.11-1.7,4.87.77-5.65-1.64,4.01.61c-2.06-.85-6.33-1.41-10.66-1.39.34.59,2.14,1.13,4.58,1.37-.1-.68-1.98-1.34-4.71-1.65,2.06,1.12,5.93,2.07,10.73,2.64-.54-.73-3.73-1.32-7.05-1.29-.45.4.94.86,2.79.91-2.28-.48-5.52-.71-8.61-.62,2.64.44,5.29.87,7.93,1.31-.04-.62-2.97-1.16-5.72-1.04l2.06.08.11-1.73"/>
  <path class="cls-3" d="M321.01,582.53c-2.21,1.5.92,3.68,5.5,3.81,4.58.14,8.6-1.82,7.06-3.44-1.98.37-2.17,1.59-.32,2.05-6.37-.57-12.75-1.15-19.12-1.72,2.52,1.04,5.64,1.95,9.31,2.26s7.94-.12,10.05-1.28c2.11-1.16,1.11-3.04-2.37-3.57l1.89,3.91-4.52.06c-.08,1.08,2.1,2.13,4.92,2.37l-8.12-2.43,2.05,1.56c-3.72-1.56-7.45-3.11-11.17-4.67,4.44,1.68,8.89,3.35,13.33,5.03,1.61-1.23-.11-2.91-3.51-3.42-.4,1.3,1.91,2.65,5.24,3.05-.63-1.38-3.94-2.52-7.67-2.65,1.57-.28,3.26-.59,4.02-1.17s-.1-1.48-1.84-1.48c-1.75,0-2.6.93-1.66,1.48s2.87.74,4.62.76c-2.05.16-3.93.6-5.24,1.21,1.2-.04.88-.91-.31-.83"/>
  <path class="cls-15" d="M144.14,556.11c-1.01.53-.16,1.67,1.19,1.77s2.59-.6,2.88-1.37-.15-1.59-.75-2.31c-3.12-3.68-11.18-5.61-17.79-4.25-2.18.45-4.37,1.38-4.67,2.72-.37,1.67,2.52,3.1,5.38,3.23s5.6-.63,8.17-1.37c2.24.65,4.48,1.3,6.72,1.96-.39.24-.78.49-1.17.73-4.02-2.87-10.05-4.73-16.35-5.04,3.53.61,7.06,1.21,10.59,1.82l1.41.87-7.76-.7,7.76,1.23.12-1.61,6.38.93c-.8-1.27-2.51-2.34-4.63-2.87l2.11,1.64c-5.92-.89-11.84-1.78-17.76-2.67l10.01,4.25c.27-1.35-1.11-2.76-3.23-3.3l5.35,2.71-5.11-1.35"/>
</svg>